<svg xmlns="http://www.w3.org/2000/svg" viewBox="0 0 1200 800" width="1200" height="800" role="img">
  <defs>
    <linearGradient id="sky" x1="0" y1="0" x2="0" y2="1">
      <stop offset="0%" stop-color="#20304f"/>
      <stop offset="55%" stop-color="#3b5a80"/>
      <stop offset="100%" stop-color="#6d8fb0"/>
    </linearGradient>
    <linearGradient id="sea" x1="0" y1="0" x2="0" y2="1">
      <stop offset="0%" stop-color="#22405e"/>
      <stop offset="100%" stop-color="#101f33"/>
    </linearGradient>
  </defs>
  
    <rect width="1200" height="800" fill="url(#sky)"/>
    <circle cx="485" cy="190" r="60" fill="#ffe6a7" opacity="0.85"/>
    <polygon points="0,800 0,351 240,350 480,440 720,417 960,333 1200,378 1200,800" fill="#0a1725" opacity="0.7"/>
    <rect y="480" width="1200" height="320" fill="url(#sea)"/>
    <rect x="60" y="470" width="10" height="250" fill="#ffffff" opacity="0.9"/>
    <rect x="142" y="470" width="10" height="250" fill="#ffffff" opacity="0.9"/>
    <rect x="224" y="470" width="10" height="250" fill="#ffffff" opacity="0.9"/>
    <rect x="306" y="470" width="10" height="250" fill="#ffffff" opacity="0.9"/>
    <rect x="388" y="470" width="10" height="250" fill="#ffffff" opacity="0.9"/>
    <rect x="470" y="470" width="10" height="250" fill="#ffffff" opacity="0.9"/>
    <rect x="552" y="470" width="10" height="250" fill="#ffffff" opacity="0.9"/>
    <rect x="634" y="470" width="10" height="250" fill="#ffffff" opacity="0.9"/>
    <rect x="716" y="470" width="10" height="250" fill="#ffffff" opacity="0.9"/>
    <rect x="798" y="470" width="10" height="250" fill="#ffffff" opacity="0.9"/>
    <rect x="880" y="470" width="10" height="250" fill="#ffffff" opacity="0.9"/>
    <rect x="962" y="470" width="10" height="250" fill="#ffffff" opacity="0.9"/>
    <rect x="1044" y="470" width="10" height="250" fill="#ffffff" opacity="0.9"/>
    <rect x="1126" y="470" width="10" height="250" fill="#ffffff" opacity="0.9"/>
    <rect x="40" y="450" width="1120" height="18" rx="9" fill="#ffffff"/>
    <rect y="720" width="1200" height="80" fill="#d8c3a5"/>
    <ellipse cx="180" cy="690" rx="90" ry="42" fill="#3d8557" opacity="0.9"/>
    <rect x="140" y="700" width="90" height="60" rx="8" fill="#a9764c"/>
    <rect x="820" y="620" width="260" height="18" rx="9" fill="#ffffff"/>
    <rect x="856" y="638" width="16" height="86" fill="#ffffff" opacity="0.85"/>
    <rect x="1028" y="638" width="16" height="86" fill="#ffffff" opacity="0.85"/>
    <rect x="900" y="560" width="120" height="60" rx="10" fill="#ffffff" opacity="0.8"/>
</svg>
