<svg xmlns="http://www.w3.org/2000/svg" viewBox="0 0 1200 800" width="1200" height="800" role="img">
  <defs>
    <linearGradient id="sky" x1="0" y1="0" x2="0" y2="1">
      <stop offset="0%" stop-color="#cfe9f1"/>
      <stop offset="55%" stop-color="#8fc9dd"/>
      <stop offset="100%" stop-color="#4a9cbe"/>
    </linearGradient>
    <linearGradient id="sea" x1="0" y1="0" x2="0" y2="1">
      <stop offset="0%" stop-color="#3f9bb8"/>
      <stop offset="100%" stop-color="#1c6f8f"/>
    </linearGradient>
  </defs>
  
    <rect width="1200" height="800" fill="url(#sky)"/>
    <circle cx="550" cy="190" r="60" fill="#ffffff" opacity="0.85"/>
    <polygon points="0,800 0,351 171,350 343,440 514,417 686,333 857,378 1029,450 1200,387 1200,800" fill="#134b60" opacity="0.7"/>
    <rect y="480" width="1200" height="320" fill="url(#sea)"/>
    <rect x="60" y="470" width="10" height="250" fill="#ffffff" opacity="0.85"/><rect x="142" y="470" width="10" height="250" fill="#ffffff" opacity="0.85"/><rect x="224" y="470" width="10" height="250" fill="#ffffff" opacity="0.85"/><rect x="306" y="470" width="10" height="250" fill="#ffffff" opacity="0.85"/><rect x="388" y="470" width="10" height="250" fill="#ffffff" opacity="0.85"/><rect x="470" y="470" width="10" height="250" fill="#ffffff" opacity="0.85"/><rect x="552" y="470" width="10" height="250" fill="#ffffff" opacity="0.85"/><rect x="634" y="470" width="10" height="250" fill="#ffffff" opacity="0.85"/><rect x="716" y="470" width="10" height="250" fill="#ffffff" opacity="0.85"/><rect x="798" y="470" width="10" height="250" fill="#ffffff" opacity="0.85"/><rect x="880" y="470" width="10" height="250" fill="#ffffff" opacity="0.85"/><rect x="962" y="470" width="10" height="250" fill="#ffffff" opacity="0.85"/><rect x="1044" y="470" width="10" height="250" fill="#ffffff" opacity="0.85"/><rect x="1126" y="470" width="10" height="250" fill="#ffffff" opacity="0.85"/>
    <rect x="40" y="450" width="1120" height="18" rx="9" fill="#ffffff" opacity="0.95"/>
    <rect y="720" width="1200" height="80" fill="#c9b8a3"/>
    <ellipse cx="180" cy="700" rx="90" ry="40" fill="#2f6b45" opacity="0.85"/>
    <ellipse cx="230" cy="670" rx="60" ry="34" fill="#3d8557" opacity="0.85"/>
    <rect x="140" y="700" width="90" height="60" rx="8" fill="#a9613c"/>
    <rect x="880" y="640" width="220" height="16" rx="8" fill="#ffffff" opacity="0.9"/>
    <rect x="920" y="656" width="16" height="80" fill="#ffffff" opacity="0.7"/>
    <rect x="1044" y="656" width="16" height="80" fill="#ffffff" opacity="0.7"/>
</svg>
