<svg xmlns="http://www.w3.org/2000/svg" viewBox="0 0 1200 800" width="1200" height="800" role="img">
  <defs>
    <linearGradient id="sky" x1="0" y1="0" x2="0" y2="1">
      <stop offset="0%" stop-color="#20304f"/>
      <stop offset="55%" stop-color="#3b5a80"/>
      <stop offset="100%" stop-color="#6d8fb0"/>
    </linearGradient>
    <linearGradient id="sea" x1="0" y1="0" x2="0" y2="1">
      <stop offset="0%" stop-color="#22405e"/>
      <stop offset="100%" stop-color="#101f33"/>
    </linearGradient>
  </defs>
  
    <rect width="1200" height="800" fill="url(#sky)"/>
    <rect y="360" width="1200" height="440" fill="#dcd2bf"/>
    <polygon points="0,800 0,363 240,376 480,286 720,296 960,383 1200,351 1200,800" fill="#0a1725" opacity="0.5"/>
    <ellipse cx="113" cy="430" rx="70" ry="86" fill="#2f6b45" opacity="0.8"/>
            <rect x="104" y="470" width="18" height="120" fill="#5b4127"/><ellipse cx="313" cy="450" rx="70" ry="86" fill="#2f6b45" opacity="0.8"/>
            <rect x="304" y="490" width="18" height="120" fill="#5b4127"/><ellipse cx="513" cy="470" rx="70" ry="86" fill="#2f6b45" opacity="0.8"/>
            <rect x="504" y="510" width="18" height="120" fill="#5b4127"/><ellipse cx="713" cy="430" rx="70" ry="86" fill="#2f6b45" opacity="0.8"/>
            <rect x="704" y="470" width="18" height="120" fill="#5b4127"/><ellipse cx="913" cy="450" rx="70" ry="86" fill="#2f6b45" opacity="0.8"/>
            <rect x="904" y="490" width="18" height="120" fill="#5b4127"/><ellipse cx="1113" cy="470" rx="70" ry="86" fill="#2f6b45" opacity="0.8"/>
            <rect x="1104" y="510" width="18" height="120" fill="#5b4127"/>
    <path d="M480 800 L560 560 L660 560 L760 800 Z" fill="#efe7d6"/>
    <rect x="100" y="600" width="1000" height="8" rx="4" fill="#c7b9a0"/>
    <rect x="820" y="480" width="240" height="160" rx="10" fill="#ffffff" opacity="0.9"/>
    <rect x="860" y="520" width="70" height="70" rx="6" fill="#22405e" opacity="0.5"/>
    <rect x="950" y="520" width="70" height="70" rx="6" fill="#22405e" opacity="0.5"/>
    <circle cx="483" cy="180" r="54" fill="#ffe6a7" opacity="0.85"/>
</svg>
